<mxfile host="app.diagrams.net" agent="Mozilla/5.0 (Windows NT 10.0; Win64; x64) AppleWebKit/537.36 (KHTML, like Gecko) Chrome/131.0.0.0 Safari/537.36 Edg/131.0.0.0" version="24.9.2">
  <diagram name="第 1 页" id="nVx0SWUJCrak7lX6ZAO0">
    <mxGraphModel dx="1434" dy="784" grid="1" gridSize="10" guides="1" tooltips="1" connect="1" arrows="1" fold="1" page="1" pageScale="1" pageWidth="827" pageHeight="1169" math="0" shadow="0">
      <root>
        <mxCell id="0" />
        <mxCell id="1" parent="0" />
        <mxCell id="S62wLR0QwqzBYEpS3YqH-1" value="评标系统" style="shape=umlLifeline;perimeter=lifelinePerimeter;whiteSpace=wrap;html=1;container=1;dropTarget=0;collapsible=0;recursiveResize=0;outlineConnect=0;portConstraint=eastwest;newEdgeStyle={&quot;edgeStyle&quot;:&quot;elbowEdgeStyle&quot;,&quot;elbow&quot;:&quot;vertical&quot;,&quot;curved&quot;:0,&quot;rounded&quot;:0};" vertex="1" parent="1">
          <mxGeometry x="350" y="70" width="100" height="590" as="geometry" />
        </mxCell>
        <mxCell id="S62wLR0QwqzBYEpS3YqH-2" value="" style="html=1;points=[];perimeter=orthogonalPerimeter;outlineConnect=0;targetShapes=umlLifeline;portConstraint=eastwest;newEdgeStyle={&quot;edgeStyle&quot;:&quot;elbowEdgeStyle&quot;,&quot;elbow&quot;:&quot;vertical&quot;,&quot;curved&quot;:0,&quot;rounded&quot;:0};" vertex="1" parent="S62wLR0QwqzBYEpS3YqH-1">
          <mxGeometry x="45" y="70" width="10" height="490" as="geometry" />
        </mxCell>
        <mxCell id="S62wLR0QwqzBYEpS3YqH-3" value="初始化云证书-人脸识别签章模式" style="html=1;align=left;spacingLeft=2;endArrow=block;rounded=0;edgeStyle=orthogonalEdgeStyle;curved=0;rounded=0;" edge="1" parent="S62wLR0QwqzBYEpS3YqH-1">
          <mxGeometry relative="1" as="geometry">
            <mxPoint x="55" y="90" as="sourcePoint" />
            <Array as="points">
              <mxPoint x="85" y="120" />
            </Array>
            <mxPoint x="55" y="120" as="targetPoint" />
            <mxPoint as="offset" />
          </mxGeometry>
        </mxCell>
        <mxCell id="S62wLR0QwqzBYEpS3YqH-5" value="根据云签章是否需要人脸识别，若需要弹出根据返回的地址弹出人脸识别" style="html=1;align=left;spacingLeft=2;endArrow=block;rounded=0;edgeStyle=orthogonalEdgeStyle;curved=0;rounded=0;" edge="1" parent="S62wLR0QwqzBYEpS3YqH-1">
          <mxGeometry relative="1" as="geometry">
            <mxPoint x="55" y="320" as="sourcePoint" />
            <Array as="points">
              <mxPoint x="85" y="350" />
            </Array>
            <mxPoint x="55" y="350" as="targetPoint" />
          </mxGeometry>
        </mxCell>
        <mxCell id="S62wLR0QwqzBYEpS3YqH-6" value="进行PDF签章数据合并" style="html=1;align=left;spacingLeft=2;endArrow=block;rounded=0;edgeStyle=orthogonalEdgeStyle;curved=0;rounded=0;entryX=1;entryY=0.918;entryDx=0;entryDy=0;entryPerimeter=0;" edge="1" parent="S62wLR0QwqzBYEpS3YqH-1" target="S62wLR0QwqzBYEpS3YqH-2">
          <mxGeometry relative="1" as="geometry">
            <mxPoint x="55" y="490" as="sourcePoint" />
            <Array as="points">
              <mxPoint x="85" y="490" />
              <mxPoint x="85" y="520" />
            </Array>
            <mxPoint x="60" y="520" as="targetPoint" />
          </mxGeometry>
        </mxCell>
        <mxCell id="S62wLR0QwqzBYEpS3YqH-7" value="云签服务端" style="shape=umlLifeline;perimeter=lifelinePerimeter;whiteSpace=wrap;html=1;container=1;dropTarget=0;collapsible=0;recursiveResize=0;outlineConnect=0;portConstraint=eastwest;newEdgeStyle={&quot;edgeStyle&quot;:&quot;elbowEdgeStyle&quot;,&quot;elbow&quot;:&quot;vertical&quot;,&quot;curved&quot;:0,&quot;rounded&quot;:0};" vertex="1" parent="1">
          <mxGeometry x="610" y="70" width="100" height="590" as="geometry" />
        </mxCell>
        <mxCell id="S62wLR0QwqzBYEpS3YqH-8" value="" style="html=1;points=[];perimeter=orthogonalPerimeter;outlineConnect=0;targetShapes=umlLifeline;portConstraint=eastwest;newEdgeStyle={&quot;edgeStyle&quot;:&quot;elbowEdgeStyle&quot;,&quot;elbow&quot;:&quot;vertical&quot;,&quot;curved&quot;:0,&quot;rounded&quot;:0};" vertex="1" parent="S62wLR0QwqzBYEpS3YqH-7">
          <mxGeometry x="45" y="220" width="10" height="60" as="geometry" />
        </mxCell>
        <mxCell id="S62wLR0QwqzBYEpS3YqH-9" value="" style="html=1;points=[[0,0,0,0,5],[0,1,0,0,-5],[1,0,0,0,5],[1,1,0,0,-5]];perimeter=orthogonalPerimeter;outlineConnect=0;targetShapes=umlLifeline;portConstraint=eastwest;newEdgeStyle={&quot;curved&quot;:0,&quot;rounded&quot;:0};" vertex="1" parent="S62wLR0QwqzBYEpS3YqH-7">
          <mxGeometry x="45" y="380" width="10" height="80" as="geometry" />
        </mxCell>
        <mxCell id="S62wLR0QwqzBYEpS3YqH-10" value="" style="shape=umlLifeline;perimeter=lifelinePerimeter;whiteSpace=wrap;html=1;container=1;dropTarget=0;collapsible=0;recursiveResize=0;outlineConnect=0;portConstraint=eastwest;newEdgeStyle={&quot;edgeStyle&quot;:&quot;elbowEdgeStyle&quot;,&quot;elbow&quot;:&quot;vertical&quot;,&quot;curved&quot;:0,&quot;rounded&quot;:0};participant=umlActor;" vertex="1" parent="1">
          <mxGeometry x="140" y="70" width="20" height="590" as="geometry" />
        </mxCell>
        <mxCell id="S62wLR0QwqzBYEpS3YqH-11" value="" style="html=1;points=[];perimeter=orthogonalPerimeter;outlineConnect=0;targetShapes=umlLifeline;portConstraint=eastwest;newEdgeStyle={&quot;edgeStyle&quot;:&quot;elbowEdgeStyle&quot;,&quot;elbow&quot;:&quot;vertical&quot;,&quot;curved&quot;:0,&quot;rounded&quot;:0};" vertex="1" parent="S62wLR0QwqzBYEpS3YqH-10">
          <mxGeometry x="5" y="70" width="10" height="490" as="geometry" />
        </mxCell>
        <mxCell id="S62wLR0QwqzBYEpS3YqH-12" value="进行PDF文件云签章" style="html=1;verticalAlign=bottom;endArrow=block;edgeStyle=elbowEdgeStyle;elbow=vertical;curved=0;rounded=0;" edge="1" parent="1" target="S62wLR0QwqzBYEpS3YqH-1">
          <mxGeometry width="80" relative="1" as="geometry">
            <mxPoint x="150" y="140" as="sourcePoint" />
            <mxPoint x="230" y="140" as="targetPoint" />
          </mxGeometry>
        </mxCell>
        <mxCell id="S62wLR0QwqzBYEpS3YqH-13" value="用户" style="text;html=1;align=center;verticalAlign=middle;resizable=0;points=[];autosize=1;strokeColor=none;fillColor=none;" vertex="1" parent="1">
          <mxGeometry x="125" y="100" width="50" height="30" as="geometry" />
        </mxCell>
        <mxCell id="S62wLR0QwqzBYEpS3YqH-14" value="返回云签章是否需要人脸识别结果" style="html=1;verticalAlign=bottom;endArrow=open;dashed=1;endSize=8;edgeStyle=elbowEdgeStyle;elbow=vertical;curved=0;rounded=0;" edge="1" parent="1" source="S62wLR0QwqzBYEpS3YqH-7" target="S62wLR0QwqzBYEpS3YqH-2">
          <mxGeometry x="-0.002" relative="1" as="geometry">
            <mxPoint x="464" y="380" as="sourcePoint" />
            <mxPoint x="310" y="380" as="targetPoint" />
            <Array as="points">
              <mxPoint x="530" y="350" />
            </Array>
            <mxPoint as="offset" />
          </mxGeometry>
        </mxCell>
        <mxCell id="S62wLR0QwqzBYEpS3YqH-15" value="调用云签服务端，获取云签章是否需要人脸识别" style="html=1;verticalAlign=bottom;endArrow=block;curved=0;rounded=0;" edge="1" parent="1" target="S62wLR0QwqzBYEpS3YqH-7">
          <mxGeometry width="80" relative="1" as="geometry">
            <mxPoint x="400" y="290" as="sourcePoint" />
            <mxPoint x="480" y="290" as="targetPoint" />
          </mxGeometry>
        </mxCell>
        <mxCell id="S62wLR0QwqzBYEpS3YqH-16" value="调用云签服务端获取云证，电子印章" style="html=1;verticalAlign=bottom;endArrow=block;curved=0;rounded=0;entryX=0;entryY=0;entryDx=0;entryDy=5;" edge="1" parent="1" source="S62wLR0QwqzBYEpS3YqH-2" target="S62wLR0QwqzBYEpS3YqH-9">
          <mxGeometry relative="1" as="geometry">
            <mxPoint x="585" y="455" as="sourcePoint" />
            <mxPoint as="offset" />
          </mxGeometry>
        </mxCell>
        <mxCell id="S62wLR0QwqzBYEpS3YqH-17" value="返回云证，电子印章" style="html=1;verticalAlign=bottom;endArrow=open;dashed=1;endSize=8;curved=0;rounded=0;exitX=0;exitY=1;exitDx=0;exitDy=-5;" edge="1" parent="1" source="S62wLR0QwqzBYEpS3YqH-9" target="S62wLR0QwqzBYEpS3YqH-2">
          <mxGeometry relative="1" as="geometry">
            <mxPoint x="585" y="525" as="targetPoint" />
          </mxGeometry>
        </mxCell>
        <mxCell id="S62wLR0QwqzBYEpS3YqH-18" value="签章成功" style="html=1;verticalAlign=bottom;endArrow=open;dashed=1;endSize=8;curved=0;rounded=0;" edge="1" parent="1" target="S62wLR0QwqzBYEpS3YqH-10">
          <mxGeometry relative="1" as="geometry">
            <mxPoint x="390" y="630" as="sourcePoint" />
            <mxPoint x="310" y="630" as="targetPoint" />
          </mxGeometry>
        </mxCell>
      </root>
    </mxGraphModel>
  </diagram>
</mxfile>
